<?xml version="1.0" standalone="no"?>
<!DOCTYPE svg PUBLIC "-//W3C//DTD SVG 20010904//EN"
 "http://www.w3.org/TR/2001/REC-SVG-20010904/DTD/svg10.dtd">
<svg version="1.0" xmlns="http://www.w3.org/2000/svg"
 width="512.000000pt" height="512.000000pt" viewBox="0 0 512.000000 512.000000"
 preserveAspectRatio="xMidYMid meet">

<g transform="translate(0.000000,512.000000) scale(0.100000,-0.100000)"
fill="#000000" stroke="none">
<path d="M403 4896 c-88 -28 -176 -107 -216 -194 l-22 -47 -3 -1217 -2 -1218
2400 0 2400 0 -2 1253 -3 1253 -26 49 c-28 56 -91 109 -147 125 -25 7 -735 10
-2187 9 -1740 0 -2158 -3 -2192 -13z m574 -238 c30 -28 29 -63 -2 -93 -24 -25
-24 -25 -235 -25 l-210 0 0 -210 c0 -211 0 -211 -25 -235 -13 -14 -34 -25 -45
-25 -11 0 -32 11 -45 25 l-25 24 0 257 c0 251 1 258 22 281 21 23 23 23 282
23 253 0 260 -1 283 -22z m3730 0 c23 -21 23 -23 23 -280 l0 -259 -25 -24
c-13 -14 -33 -25 -45 -25 -11 0 -32 11 -45 25 -25 24 -25 24 -25 235 l0 210
-210 0 c-211 0 -211 0 -235 25 -31 30 -32 62 -3 92 21 23 23 23 282 23 253 0
260 -1 283 -22z m-2035 -76 c92 -42 182 -150 246 -297 28 -64 33 -70 59 -68
15 1 82 3 148 4 98 1 132 -3 187 -20 235 -75 279 -293 112 -554 -25 -39 -55
-81 -65 -92 -18 -21 -18 -22 27 -80 58 -77 119 -204 134 -278 26 -128 -31
-251 -142 -308 -79 -40 -154 -52 -295 -46 l-132 5 -50 -103 c-92 -188 -208
-285 -341 -285 -133 0 -249 97 -341 285 l-50 103 -132 -5 c-141 -6 -216 6
-295 46 -111 57 -168 180 -142 308 15 74 76 201 134 278 45 58 45 59 27 80
-10 11 -40 53 -65 92 -104 162 -129 306 -71 413 37 68 96 113 183 141 55 17
89 21 187 20 66 -1 133 -3 148 -4 26 -2 31 3 58 68 109 258 296 376 471 297z
m-2162 -1614 c19 -20 20 -34 20 -235 l0 -213 215 0 c208 0 215 -1 235 -22 27
-29 25 -64 -5 -93 l-24 -25 -256 0 -256 0 -24 25 -25 24 0 259 c0 246 1 259
20 280 27 29 73 29 100 0z m4200 0 c19 -21 20 -34 20 -280 l0 -259 -25 -24
-24 -25 -256 0 -256 0 -24 25 c-30 29 -32 64 -5 93 20 21 27 22 235 22 l215 0
0 213 c0 201 1 215 20 235 27 29 73 29 100 0z"/>
<path d="M2505 4456 c-46 -20 -115 -103 -157 -189 -21 -42 -38 -80 -38 -84 1
-11 219 -86 250 -86 32 0 250 75 250 86 0 23 -81 166 -117 207 -67 74 -124 94
-188 66z"/>
<path d="M1891 4079 c-106 -18 -156 -68 -156 -152 1 -29 9 -72 19 -96 19 -49
98 -175 116 -186 6 -4 33 14 63 42 29 27 73 66 99 87 40 32 48 44 54 84 3 26
14 84 23 130 10 45 15 84 12 86 -17 10 -183 13 -230 5z"/>
<path d="M3050 4081 c-30 -3 -54 -10 -54 -16 1 -5 9 -46 17 -90 9 -44 19 -99
22 -122 5 -34 15 -49 53 -80 26 -21 70 -59 99 -86 29 -27 57 -46 62 -42 36 21
126 189 136 252 13 82 -32 151 -113 172 -52 14 -157 20 -222 12z"/>
<path d="M2251 3985 c-7 -31 -11 -58 -9 -60 1 -2 34 15 73 38 l70 41 -30 12
c-17 6 -44 15 -61 18 -30 7 -31 6 -43 -49z"/>
<path d="M2785 4023 l-50 -15 24 -17 c56 -37 121 -71 121 -62 0 30 -25 111
-34 110 -6 0 -33 -7 -61 -16z"/>
<path d="M2437 3870 c-59 -33 -134 -77 -166 -99 l-58 -40 -7 -96 c-3 -53 -3
-144 0 -201 l7 -104 81 -52 c45 -29 123 -74 174 -101 l92 -49 93 49 c50 27
128 72 173 101 l81 52 7 100 c3 55 3 146 -1 201 l-6 102 -83 53 c-101 66 -244
144 -264 144 -9 0 -64 -27 -123 -60z m210 -83 c180 -67 238 -288 113 -430
-109 -123 -286 -124 -399 -2 -127 138 -68 365 112 432 18 6 57 11 87 11 30 0
69 -5 87 -11z"/>
<path d="M2492 3640 c-60 -37 -77 -122 -37 -184 9 -14 37 -33 61 -42 41 -16
47 -16 88 0 24 9 52 28 61 42 57 87 -3 204 -105 204 -19 0 -50 -9 -68 -20z"/>
<path d="M2012 3572 l-43 -37 45 -45 46 -44 0 82 c0 45 -1 82 -2 82 -2 0 -22
-17 -46 -38z"/>
<path d="M3060 3529 l0 -83 45 44 c24 24 42 47 39 51 -2 4 -22 22 -44 39 l-40
32 0 -83z"/>
<path d="M1831 3370 c-64 -91 -95 -166 -96 -230 0 -71 21 -105 83 -133 51 -23
188 -34 266 -23 l44 7 -13 57 c-7 31 -19 92 -25 134 -10 64 -17 80 -37 93 -14
9 -60 47 -103 85 l-78 69 -41 -59z"/>
<path d="M3185 3374 c-33 -31 -79 -69 -101 -85 -40 -29 -42 -34 -54 -107 -6
-42 -18 -103 -25 -134 l-13 -57 44 -7 c133 -20 293 14 329 69 49 75 10 210
-100 350 l-20 26 -60 -55z"/>
<path d="M2243 3118 c3 -13 9 -40 12 -60 4 -21 8 -38 10 -38 2 0 71 23 105 36
9 3 -10 19 -53 45 -38 21 -71 39 -74 39 -3 0 -3 -10 0 -22z"/>
<path d="M2802 3100 c-35 -21 -59 -41 -53 -44 8 -5 99 -35 107 -36 1 0 5 17 9
38 3 20 9 47 12 60 7 29 0 27 -75 -18z"/>
<path d="M2530 2966 c-14 -8 -68 -28 -120 -46 -52 -18 -97 -34 -99 -36 -6 -5
56 -132 89 -179 117 -169 260 -135 372 90 45 89 45 92 -3 105 -34 10 -77 25
-204 75 -5 2 -21 -2 -35 -9z"/>
<path d="M162 1903 c3 -171 4 -180 31 -235 35 -72 97 -134 167 -167 l55 -26
2145 0 2145 0 57 27 c69 32 129 92 165 166 27 55 28 64 31 235 l4 177 -2402 0
-2402 0 4 -177z m2633 -48 c30 -30 31 -54 4 -89 l-20 -26 -219 0 -219 0 -20
26 c-27 35 -26 59 4 89 24 25 24 25 235 25 211 0 211 0 235 -25z"/>
<path d="M1936 1308 c-3 -13 -7 -57 -11 -98 -7 -88 -46 -289 -74 -378 l-19
-62 724 0 c398 0 724 2 724 5 0 3 -13 52 -29 109 -33 117 -57 240 -66 336 -3
36 -8 75 -11 88 l-4 22 -615 0 -615 0 -4 -22z"/>
<path d="M1366 615 c-182 -65 -180 -330 3 -393 49 -17 2333 -17 2382 0 86 29
139 104 139 197 0 90 -64 177 -147 200 -26 7 -415 11 -1188 11 -950 -1 -1157
-3 -1189 -15z"/>
</g>
</svg>
