<svg width="25" height="25" viewBox="0 0 25 25" fill="none" xmlns="http://www.w3.org/2000/svg">
<g id="SVG">
<path id="Vector" fill-rule="evenodd" clip-rule="evenodd" d="M13.3901 3.59999C13.2044 3.58307 12.9292 3.58014 12.4019 3.58014H9.19014C8.33356 3.58014 7.75127 3.58092 7.30118 3.61769C6.86276 3.65351 6.63856 3.71844 6.48216 3.79813C6.10584 3.98988 5.79987 4.29584 5.60813 4.67216C5.52844 4.82856 5.46351 5.05277 5.42769 5.49118C5.39092 5.94127 5.39014 6.52356 5.39014 7.38014V17.7802C5.39014 18.6367 5.39092 19.219 5.42769 19.6691C5.46351 20.1075 5.52844 20.3317 5.60813 20.4881C5.79987 20.8645 6.10584 21.1704 6.48216 21.3622C6.63856 21.4419 6.86276 21.5068 7.30118 21.5426C7.75127 21.5794 8.33356 21.5802 9.19014 21.5802H15.5901C16.4467 21.5802 17.029 21.5794 17.4791 21.5426C17.9175 21.5068 18.1417 21.4419 18.2981 21.3622C18.6744 21.1704 18.9804 20.8645 19.1721 20.4881C19.2518 20.3317 19.3167 20.1075 19.3525 19.6691C19.3893 19.219 19.3901 18.6367 19.3901 17.7802V10.5684C19.3901 10.0411 19.3872 9.76591 19.3703 9.58021L15.9582 9.58022C15.7058 9.58025 15.46 9.58028 15.2519 9.56327C15.0233 9.54459 14.7535 9.50052 14.4821 9.36223C14.1058 9.17048 13.7998 8.86452 13.6081 8.4882C13.4698 8.21677 13.4257 7.94704 13.407 7.71844C13.39 7.51028 13.3901 7.26448 13.3901 7.0121V3.59999ZM14.7837 1.93011C14.5578 1.82885 14.3227 1.74862 14.0812 1.69066C13.6185 1.57958 13.1388 1.57981 12.5038 1.58011C12.4702 1.58013 12.4363 1.58014 12.4019 1.58014H9.14884C8.34387 1.58013 7.67951 1.58012 7.13831 1.62434C6.57622 1.67026 6.05951 1.76883 5.57418 2.01612C4.82153 2.39961 4.20961 3.01153 3.82611 3.76418C3.57882 4.24952 3.48026 4.76622 3.43433 5.32832C3.39012 5.86951 3.39013 6.53387 3.39014 7.33884V17.8215C3.39013 18.6264 3.39012 19.2908 3.43433 19.832C3.48026 20.3941 3.57882 20.9108 3.82611 21.3961C4.20961 22.1488 4.82153 22.7607 5.57418 23.1442C6.05951 23.3915 6.57622 23.49 7.13831 23.536C7.6795 23.5802 8.34386 23.5802 9.14882 23.5802H15.6314C16.4364 23.5802 17.1007 23.5802 17.6419 23.536C18.204 23.49 18.7207 23.3915 19.2061 23.1442C19.9587 22.7607 20.5706 22.1488 20.9541 21.3961C21.2014 20.9108 21.3 20.3941 21.3459 19.832C21.3901 19.2908 21.3901 18.6264 21.3901 17.8215V10.5684C21.3901 10.534 21.3901 10.5 21.3901 10.4665C21.3904 9.8315 21.3907 9.3517 21.2796 8.889C21.2218 8.64827 21.1419 8.4138 21.041 8.18851C21.0348 8.17383 21.0282 8.15933 21.0212 8.14502C20.9559 8.00363 20.8823 7.86597 20.8007 7.73279C20.552 7.32706 20.2126 6.98796 19.7634 6.53915C19.7397 6.51547 19.7156 6.49147 19.6913 6.46715L16.5031 3.27892C16.4788 3.2546 16.4548 3.23058 16.4311 3.20686C15.9823 2.75764 15.6432 2.41821 15.2375 2.16958C15.1037 2.08764 14.9655 2.01375 14.8235 1.94822C14.8104 1.9419 14.7971 1.93586 14.7837 1.93011ZM15.3901 4.99436V6.98022C15.3901 7.27674 15.3909 7.439 15.4004 7.55558C15.4008 7.56022 15.4012 7.56462 15.4015 7.56877C15.4057 7.56915 15.4101 7.56953 15.4147 7.56991C15.5313 7.57944 15.6936 7.58021 15.9901 7.58021H17.976L15.3901 4.99436ZM11.0972 12.3731C11.4877 12.7636 11.4877 13.3967 11.0972 13.7873L9.30435 15.5802L11.0972 17.3731C11.4877 17.7636 11.4877 18.3967 11.0972 18.7873C10.7067 19.1778 10.0736 19.1778 9.68303 18.7873L7.18303 16.2873C6.79251 15.8967 6.79251 15.2636 7.18303 14.8731L9.68303 12.3731C10.0736 11.9825 10.7067 11.9825 11.0972 12.3731ZM13.683 13.7873C13.2925 13.3967 13.2925 12.7636 13.683 12.3731C14.0735 11.9825 14.7067 11.9825 15.0972 12.3731L17.5972 14.8731C17.9877 15.2636 17.9877 15.8967 17.5972 16.2873L15.0972 18.7873C14.7067 19.1778 14.0735 19.1778 13.683 18.7873C13.2925 18.3967 13.2925 17.7636 13.683 17.3731L15.4759 15.5802L13.683 13.7873Z" fill="white"/>
</g>
</svg>
