<svg width="24" height="26" viewBox="0 0 24 26" fill="none" xmlns="http://www.w3.org/2000/svg">
<g id="SVG">
<g id="Page-1">
<g id="noun-code-2821480">
<path id="Shape" d="M7.4025 3.67126C9.12145 3.67126 9.12145 6.28491 7.4025 6.28491C6.72615 6.28491 6.0515 6.52827 6.0515 7.30521V11.0039C6.0515 11.5254 5.74564 11.9758 5.30385 12.1855L3.9146 12.9998L5.40345 13.8724C5.81575 14.1144 6.0464 14.5494 6.0466 14.9959L6.05148 18.6945C6.05148 19.4717 6.72608 19.7144 7.40248 19.7144C9.12143 19.7144 9.12143 22.3283 7.40248 22.3283C5.26283 22.3283 3.43763 20.939 3.43763 18.6945V15.7388L0.698781 14.1326C-0.161769 13.646 -0.190869 12.3888 0.68218 11.8765L3.43763 10.2611V7.30521C3.43763 5.06031 5.26285 3.67126 7.4025 3.67126ZM16.597 3.67126C14.878 3.67126 14.878 6.28491 16.597 6.28491C17.2733 6.28491 17.9483 6.52827 17.9483 7.30521V11.0039C17.9483 11.5254 18.2542 11.9758 18.696 12.1855L20.085 12.9998L18.5965 13.8724C18.1839 14.1144 17.9536 14.5494 17.9534 14.9959L17.9485 18.6945C17.9485 19.4717 17.2735 19.7144 16.5972 19.7144C14.8782 19.7144 14.8782 22.3283 16.5972 22.3283C18.7372 22.3283 20.562 20.939 20.562 18.6945V15.7388L23.3013 14.1326C24.1614 13.646 24.1913 12.3888 23.3179 11.8765L20.562 10.2611V7.30521C20.562 5.06031 18.7372 3.67126 16.5972 3.67126H16.597Z" fill="#121926"/>
</g>
</g>
</g>
</svg>
