<svg width="24" height="25" viewBox="0 0 24 25" fill="none" xmlns="http://www.w3.org/2000/svg">
<g id="SVG">
<path id="Vector" fill-rule="evenodd" clip-rule="evenodd" d="M9.86924 2.17182C10.1617 1.51387 10.8141 1.08984 11.5342 1.08984C13.4483 1.08984 15 2.64155 15 4.55568V8.08984H18.5032C20.9547 8.08984 22.8294 10.275 22.4567 12.698L21.3797 19.698C21.0795 21.6494 19.4005 23.0898 17.4262 23.0898H4C2.34315 23.0898 1 21.7467 1 20.0898V13.0898C1 11.4329 2.34315 10.0898 4 10.0898H6.35013L9.86924 2.17182ZM8 21.0898H17.4262C18.4134 21.0898 19.2529 20.3696 19.403 19.3939L20.4799 12.3939C20.6663 11.1824 19.7289 10.0898 18.5032 10.0898H15C13.8954 10.0898 13 9.19441 13 8.08984V4.55568C13 3.78441 12.4043 3.15226 11.6479 3.09419L8.17775 10.9021C8.1277 11.0147 8.06805 11.1211 8 11.2204V21.0898ZM6 12.0898V21.0898H4C3.44772 21.0898 3 20.6421 3 20.0898V13.0898C3 12.5375 3.44772 12.0898 4 12.0898H6Z" fill="#121926"/>
</g>
</svg>
