<svg width="25" height="25" viewBox="0 0 25 25" fill="none" xmlns="http://www.w3.org/2000/svg">
<g id="SVG">
<path id="Vector" fill-rule="evenodd" clip-rule="evenodd" d="M7.75155 1.08984H17.4287C17.9558 1.08983 18.4106 1.08981 18.7851 1.12041C19.1805 1.15271 19.5737 1.22403 19.9521 1.41682C20.5166 1.70444 20.9755 2.16338 21.2631 2.72787C21.4559 3.10625 21.5272 3.49947 21.5595 3.89481C21.5901 4.26938 21.5901 4.72414 21.5901 5.25128V5.96734C21.5901 5.99105 21.5901 6.01456 21.5902 6.03788C21.5904 6.38449 21.5907 6.69024 21.5289 6.99141C21.4745 7.2562 21.3846 7.51243 21.2617 7.75314C21.1218 8.02693 20.9306 8.26553 20.7138 8.53603C20.6993 8.55422 20.6846 8.57256 20.6698 8.59106L17.0668 13.0947C19.1731 15.4506 19.0951 19.0701 16.8328 21.3324C14.4896 23.6756 10.6906 23.6756 8.34745 21.3324C6.08512 19.0701 6.0071 15.4506 8.11337 13.0947L4.51044 8.59106C4.49564 8.57255 4.48094 8.55421 4.46635 8.53601C4.24961 8.26552 4.05842 8.02692 3.91855 7.75314C3.79557 7.51242 3.70569 7.2562 3.65135 6.99141C3.58954 6.69024 3.58978 6.38449 3.59006 6.03788C3.59007 6.01455 3.59009 5.99105 3.59009 5.96734V5.2513C3.59007 4.72415 3.59006 4.26939 3.62066 3.89481C3.65296 3.49947 3.72428 3.10625 3.91707 2.72787C4.20469 2.16338 4.66363 1.70444 5.22812 1.41682C5.6065 1.22403 5.99972 1.15271 6.39506 1.12041C6.76964 1.08981 7.2244 1.08983 7.75155 1.08984ZM9.67424 11.8442C10.0246 11.6492 10.3903 11.492 10.7655 11.3726L5.59157 4.72048C5.5902 4.88552 5.59009 5.07327 5.59009 5.28984V5.96734C5.59009 6.42344 5.59481 6.51282 5.61051 6.58932C5.62862 6.67759 5.65858 6.76299 5.69958 6.84323C5.73511 6.91278 5.78726 6.98552 6.07218 7.34167L9.67424 11.8442ZM6.86308 3.09765L12.5902 10.461L18.3171 3.09765C18.0781 3.0902 17.7811 3.08984 17.3901 3.08984H7.79009C7.39915 3.08984 7.10214 3.0902 6.86308 3.09765ZM19.5886 4.72051L14.4148 11.3727C14.7899 11.4921 15.1556 11.6492 15.506 11.8442L19.108 7.34167C19.3929 6.98552 19.4451 6.91278 19.4806 6.84323C19.5216 6.76299 19.5516 6.67759 19.5697 6.58932C19.5854 6.51282 19.5901 6.42344 19.5901 5.96734V5.28984C19.5901 5.07328 19.59 4.88554 19.5886 4.72051ZM15.4185 19.9182C16.9806 18.3561 16.9806 15.8235 15.4185 14.2614C13.8564 12.6993 11.3238 12.6993 9.76166 14.2614C8.19957 15.8235 8.19957 18.3561 9.76166 19.9182C11.3238 21.4803 13.8565 21.4803 15.4185 19.9182Z" fill="#121926"/>
</g>
</svg>
