<svg width="24" height="25" viewBox="0 0 24 25" fill="none" xmlns="http://www.w3.org/2000/svg">
<g id="Link &#226;&#134;&#146; SVG">
<path id="Vector" d="M20.9728 7.24719C20.5084 7.86671 19.947 8.40712 19.3103 8.84755C19.3103 9.00938 19.3103 9.17121 19.3103 9.34204C19.3154 12.2809 18.1415 15.0989 16.0518 17.1643C13.962 19.2297 11.1312 20.3697 8.19405 20.3287C6.49599 20.3344 4.81967 19.9467 3.29642 19.1959C3.21428 19.16 3.16131 19.0788 3.16162 18.9891V18.8902C3.16162 18.7611 3.26623 18.6565 3.39527 18.6565C5.06442 18.6014 6.67402 18.0227 7.99634 17.0022C6.48553 16.9717 5.12619 16.0767 4.5006 14.7005C4.46901 14.6254 4.47884 14.5391 4.52657 14.473C4.57429 14.4069 4.653 14.3705 4.73425 14.3769C5.19342 14.423 5.65718 14.3803 6.1002 14.251C4.43239 13.9048 3.17921 12.5202 2.99986 10.8255C2.99349 10.7442 3.02992 10.6655 3.096 10.6177C3.16207 10.57 3.24824 10.5601 3.32338 10.5918C3.77094 10.7893 4.25409 10.8933 4.74324 10.8974C3.28184 9.93825 2.65061 8.11384 3.20655 6.45601C3.26394 6.29492 3.40181 6.17591 3.5695 6.14273C3.73718 6.10954 3.90996 6.16707 4.02432 6.29418C5.99639 8.39304 8.70604 9.64375 11.5819 9.78258C11.5083 9.48864 11.4721 9.18655 11.4741 8.88351C11.501 7.29451 12.4842 5.879 13.9634 5.29966C15.4425 4.72033 17.1249 5.09182 18.223 6.24023C18.9714 6.09764 19.695 5.84624 20.3707 5.494C20.4202 5.4631 20.483 5.4631 20.5325 5.494C20.5634 5.54352 20.5634 5.60631 20.5325 5.65583C20.2052 6.40531 19.6523 7.03391 18.9509 7.45398C19.5651 7.38275 20.1685 7.23786 20.7482 7.02243C20.797 6.98921 20.8611 6.98921 20.9099 7.02243C20.9508 7.04113 20.9814 7.0769 20.9935 7.12021C21.0056 7.16352 20.998 7.20997 20.9728 7.24719Z" fill="#A2A2A4"/>
</g>
</svg>
