<svg width="24" height="25" viewBox="0 0 24 25" fill="none" xmlns="http://www.w3.org/2000/svg">
<g id="Link &#226;&#134;&#146; SVG" clip-path="url(#clip0_41_3022)">
<path id="Vector" d="M20.317 4.7503C18.7873 4.04842 17.147 3.53131 15.4319 3.23513C15.4007 3.22942 15.3695 3.2437 15.3534 3.27227C15.1424 3.64749 14.9087 4.13699 14.7451 4.52173C12.9004 4.24556 11.0652 4.24556 9.25832 4.52173C9.09465 4.12843 8.85248 3.64749 8.64057 3.27227C8.62448 3.24466 8.59328 3.23037 8.56205 3.23513C6.84791 3.53036 5.20756 4.04748 3.67694 4.7503C3.66368 4.75602 3.65233 4.76555 3.64479 4.77792C0.533392 9.42628 -0.31895 13.9604 0.09918 18.4383C0.101072 18.4602 0.11337 18.4812 0.130398 18.4945C2.18321 20.002 4.17171 20.9172 6.12328 21.5238C6.15451 21.5334 6.18761 21.522 6.20748 21.4962C6.66913 20.8658 7.08064 20.2011 7.43348 19.502C7.4543 19.4611 7.43442 19.4125 7.39186 19.3963C6.73913 19.1487 6.1176 18.8468 5.51973 18.504C5.47244 18.4764 5.46865 18.4087 5.51216 18.3764C5.63797 18.2821 5.76382 18.184 5.88395 18.085C5.90569 18.0669 5.93598 18.063 5.96153 18.0745C9.88928 19.8677 14.1415 19.8677 18.023 18.0745C18.0485 18.0621 18.0788 18.0659 18.1015 18.084C18.2216 18.183 18.3475 18.2821 18.4742 18.3764C18.5177 18.4087 18.5149 18.4764 18.4676 18.504C17.8697 18.8535 17.2482 19.1487 16.5945 19.3954C16.552 19.4116 16.533 19.4611 16.5538 19.502C16.9143 20.2001 17.3258 20.8648 17.7789 21.4953C17.7978 21.522 17.8319 21.5334 17.8631 21.5238C19.8241 20.9172 21.8126 20.002 23.8654 18.4945C23.8834 18.4812 23.8948 18.4611 23.8967 18.4392C24.3971 13.2623 23.0585 8.76537 20.3482 4.77887C20.3416 4.76555 20.3303 4.75602 20.317 4.7503ZM8.02002 15.7117C6.8375 15.7117 5.86313 14.6261 5.86313 13.2928C5.86313 11.9595 6.8186 10.8739 8.02002 10.8739C9.23087 10.8739 10.1958 11.969 10.1769 13.2928C10.1769 14.6261 9.22141 15.7117 8.02002 15.7117ZM15.9947 15.7117C14.8123 15.7117 13.8379 14.6261 13.8379 13.2928C13.8379 11.9595 14.7933 10.8739 15.9947 10.8739C17.2056 10.8739 18.1705 11.969 18.1516 13.2928C18.1516 14.6261 17.2056 15.7117 15.9947 15.7117Z" fill="#A2A2A4"/>
</g>
<defs>
<clipPath id="clip0_41_3022">
<rect width="24" height="24" fill="white" transform="translate(0 0.529785)"/>
</clipPath>
</defs>
</svg>
