<svg width="24" height="25" viewBox="0 0 24 25" fill="none" xmlns="http://www.w3.org/2000/svg">
<g id="Link &#226;&#134;&#146; SVG" clip-path="url(#clip0_41_3019)">
<g id="Group">
<path id="Vector" d="M12 0.82666C5.37 0.82666 0 6.19967 0 12.8267C0 18.1297 3.438 22.6267 8.205 24.2117C8.805 24.3247 9.025 23.9537 9.025 23.6347C9.025 23.3497 9.015 22.5947 9.01 21.5947C5.672 22.3187 4.968 19.9847 4.968 19.9847C4.422 18.5997 3.633 18.2297 3.633 18.2297C2.546 17.4857 3.717 17.5007 3.717 17.5007C4.922 17.5847 5.555 18.7367 5.555 18.7367C6.625 20.5717 8.364 20.0417 9.05 19.7347C9.158 18.9587 9.467 18.4297 9.81 18.1297C7.145 17.8297 4.344 16.7977 4.344 12.1997C4.344 10.8897 4.809 9.81966 5.579 8.97966C5.444 8.67666 5.039 7.45667 5.684 5.80367C5.684 5.80367 6.689 5.48167 8.984 7.03367C9.944 6.76666 10.964 6.63467 11.984 6.62866C13.004 6.63467 14.024 6.76666 14.984 7.03367C17.264 5.48167 18.269 5.80367 18.269 5.80367C18.914 7.45667 18.509 8.67666 18.389 8.97966C19.154 9.81966 19.619 10.8897 19.619 12.1997C19.619 16.8097 16.814 17.8247 14.144 18.1197C14.564 18.4797 14.954 19.2157 14.954 20.3397C14.954 21.9457 14.939 23.2357 14.939 23.6257C14.939 23.9407 15.149 24.3157 15.764 24.1957C20.565 22.6217 24 18.1217 24 12.8267C24 6.19967 18.627 0.82666 12 0.82666Z" fill="#A2A2A4"/>
</g>
</g>
<defs>
<clipPath id="clip0_41_3019">
<rect width="24" height="24" fill="white" transform="translate(0 0.529785)"/>
</clipPath>
</defs>
</svg>
