<svg width="24" height="25" viewBox="0 0 24 25" fill="none" xmlns="http://www.w3.org/2000/svg">
<g id="Link &#226;&#134;&#146; SVG" clip-path="url(#clip0_41_3015)">
<g id="Group">
<path id="Vector" d="M7.2933 20.6145V9.80964H3.70192V20.6145H7.29367H7.2933ZM5.49836 8.33467C6.75048 8.33467 7.53002 7.50498 7.53002 6.46811C7.50658 5.40761 6.75048 4.60107 5.52217 4.60107C4.29302 4.60107 3.49023 5.40761 3.49023 6.46801C3.49023 7.50489 4.26948 8.33457 5.47483 8.33457H5.49808L5.49836 8.33467ZM9.28117 20.6145H12.8723V14.5812C12.8723 14.2587 12.8957 13.9354 12.9906 13.705C13.2501 13.0596 13.841 12.3914 14.8333 12.3914C16.1325 12.3914 16.6525 13.3822 16.6525 14.8348V20.6145H20.2435V14.4193C20.2435 11.1007 18.472 9.55632 16.1093 9.55632C14.1721 9.55632 13.3213 10.639 12.8486 11.3765H12.8725V9.81001H9.28136C9.32823 10.8236 9.28108 20.6149 9.28108 20.6149L9.28117 20.6145Z" fill="#A2A2A4"/>
</g>
</g>
<defs>
<clipPath id="clip0_41_3015">
<rect width="24" height="24" fill="white" transform="translate(0 0.529785)"/>
</clipPath>
</defs>
</svg>
