<svg width="24" height="25" viewBox="0 0 24 25" fill="none" xmlns="http://www.w3.org/2000/svg">
<g id="SVG">
<path id="Vector" fill-rule="evenodd" clip-rule="evenodd" d="M7.69007 4.67723C4.89549 6.20452 3 9.17094 3 12.5801C3 13.3244 3.09034 14.0475 3.26066 14.7392L4.09499 14.2576C4.40506 14.0786 4.76894 14.0164 5.12086 14.0823L8.2807 14.6736L8.26877 11.989C8.26758 11.7209 8.33829 11.4573 8.47352 11.2258L9.33701 11.7301L9.36074 11.744M9.33701 11.7301L8.47352 11.2258L10.2064 8.25899L7.69007 4.67723M3.96621 16.6413C5.45042 19.5715 8.49065 21.5801 12 21.5801C12.1512 21.5801 12.3015 21.5764 12.4508 21.569C13.0024 21.5419 13.4716 21.967 13.4988 22.5186C13.526 23.0703 13.1008 23.5394 12.5492 23.5666C12.3672 23.5756 12.1841 23.5801 12 23.5801C5.92487 23.5801 1 18.6552 1 12.5801C1 6.50495 5.92487 1.58008 12 1.58008C14.9935 1.58008 17.7077 2.77581 19.691 4.71569C19.6974 4.7218 19.7037 4.728 19.71 4.73429C21.7406 6.73001 23 9.50797 23 12.5801C23 12.7645 22.9954 12.9476 22.9864 13.1293C22.9598 13.6709 22.5062 14.0926 21.9641 14.0798L21.9876 13.0801C21.9641 14.0798 21.9643 14.0798 21.9641 14.0798L21.9595 14.0797L21.9511 14.0795L21.9232 14.0786C21.8997 14.0778 21.8667 14.0765 21.825 14.0745C21.7416 14.0706 21.6231 14.064 21.4761 14.053C21.1827 14.0312 20.7726 13.9917 20.2999 13.921C19.3714 13.7821 18.1294 13.5127 17.0531 12.9746C16.6256 12.7609 16.1402 12.3279 15.7446 11.81C15.3366 11.276 14.9484 10.5541 14.8234 9.70881C14.6947 8.83837 14.854 7.88439 15.4756 6.96187C15.8823 6.35815 16.4693 5.79348 17.256 5.27345C15.7772 4.20784 13.9619 3.58008 12 3.58008C11.1661 3.58008 10.3587 3.6935 9.5923 3.90575L12.0274 7.37182C12.3645 7.85176 12.3911 8.48419 12.0952 8.99066L10.2694 12.1166L10.2834 15.2697C10.2876 16.2115 9.43309 16.924 8.50744 16.7508L4.93473 16.0822L3.96621 16.6413ZM18.7926 6.67557C17.9219 7.17338 17.4169 7.65988 17.1342 8.07941C16.8026 8.57155 16.7431 9.019 16.8019 9.41619C16.8644 9.83852 17.07 10.2504 17.3338 10.5958C17.6101 10.9574 17.8747 11.1494 17.9474 11.1857C18.7481 11.586 19.7498 11.8165 20.5957 11.943C20.7306 11.9632 20.8597 11.9804 20.9813 11.9952C20.8511 9.96531 20.0479 8.11852 18.7926 6.67557ZM12.8839 13.464C13.1622 13.1857 13.5777 13.0965 13.9457 13.2361L22.2944 16.4029C22.6799 16.5491 22.9361 16.9168 22.9398 17.329C22.9434 17.7412 22.6937 18.1134 22.311 18.2664L19.007 19.5871L17.6863 22.8911C17.5333 23.2738 17.1611 23.5235 16.7489 23.5199C16.3367 23.5162 15.969 23.26 15.8228 22.8745L12.656 14.5258C12.5164 14.1578 12.6056 13.7423 12.8839 13.464ZM15.3141 15.8942L16.7822 19.7646L17.3091 18.4466C17.4107 18.1923 17.6122 17.9908 17.8665 17.8892L19.1845 17.3623L15.3141 15.8942Z" fill="#121926"/>
</g>
</svg>
